#!OML:ASF F:\VICON\USERDATA\INSTALL\Justin_Nancy\Justin_Nancy.ASF
:FULLY-SPECIFIED
:DEGREES
447
root 0.552423 17.2357 38.6614 0.830841 -1.53189 4.00372
lowerback 6.34587 -0.028835 -3.69046
upperback 0.269575 -0.26465 1.19468
thorax -3.25989 -0.0678666 3.33593
lowerneck -16.6812 -2.24884 -9.50142
upperneck 19.6971 -1.62829 4.58596
head 9.06075 -0.98008 2.94368
rclavicle -6.85807e-015 -1.59028e-015
rhumerus -31.607 -18.762 -76.388
rradius 28.9603
rwrist 8.624
rhand -16.6591 12.6521
rfingers 7.12502
rthumb 9.56424 -17.1108
lclavicle -6.85807e-015 -1.59028e-015
lhumerus -26.93 11.811 83.6499
lradius 27.0727
lwrist -8.81624
lhand -16.6566 24.6499
lfingers 7.12502
lthumb 9.56669 414.413
rfemur -26.5343 -3.46598 17.4759
rtibia 63.8261
rfoot -7.94566 -8.88209
rtoes 4.92805
lfemur -9.60833 0.988486 -28.2724
ltibia 27.7205
lfoot -16.0401 1.27661
ltoes 3.19813
448
root 0.545474 17.2068 38.787 0.915792 -1.64229 3.75579
lowerback 6.2805 -0.110531 -3.66056
upperback 0.433432 -0.361492 1.37387
thorax -3.04424 -0.122773 3.51227
lowerneck -17.4998 -2.18963 -9.40524
upperneck 19.9532 -1.51311 4.6785
head 9.28875 -0.905687 2.9795
rclavicle -1.04362e-015 6.36111e-015
rhumerus -31.247 -18.4235 -76.5586
rradius 28.9744
rwrist 8.4824
rhand -16.5618 12.1141
rfingers 7.12502
rthumb 9.65817 -17.6445
lclavicle -1.04362e-015 6.36111e-015
lhumerus -26.5374 11.8383 83.6384
lradius 27.675
lwrist -9.07679
lhand -16.224 24.9359
lfingers 7.12502
lthumb 9.98402 414.679
rfemur -27.4539 -3.12228 17.882
rtibia 62.692
rfoot -8.82294 -9.08314
rtoes 3.69252
lfemur -9.37168 1.08652 -27.9913
ltibia 27.9842
lfoot -16.5892 1.39829
ltoes 3.6731
449
root 0.544899 17.1888 38.9195 0.932454 -1.62012 3.64198
lowerback 6.10664 -0.190201 -3.59477
upperback 0.706502 -0.451749 1.47605
thorax -2.65592 -0.181158 3.58498
lowerneck -18.69 -2.26062 -10.0052
upperneck 21.0458 -1.57754 5.69413
head 9.90787 -0.875054 3.45445
rclavicle -4.57205e-015 4.77083e-015
rhumerus -30.8415 -18.5614 -76.6118
rradius 28.8111
rwrist 8.47221
rhand -16.7311 11.7998
rfingers 7.12502
rthumb 9.49482 -17.9663
lclavicle -4.57205e-015 4.77083e-015
lhumerus -25.7449 11.7855 83.7242
lradius 27.8817
lwrist -9.25518
lhand -15.7142 25.0585
lfingers 7.12502
lthumb 10.4759 414.777
rfemur -28.1497 -2.99529 18.0399
rtibia 61.3852
rfoot -9.56734 -9.25011
rtoes 3.24404
lfemur -8.9064 1.08848 -27.8791
ltibia 28.0643
lfoot -17.0908 1.50267
ltoes 3.71587
450
root 0.547083 17.1825 39.0511 0.874043 -1.54723 4.09203
lowerback 6.26392 -0.210814 -4.04188
upperback 0.705923 -0.516792 1.4227
thorax -2.73538 -0.207209 3.78973
lowerneck -17.6407 -2.32129 -9.64715
upperneck 19.7439 -1.6166 4.70477
head 9.25335 -0.964183 3.01172
rclavicle -3.97569e-015 -2.14687e-014
rhumerus -31.0784 -19.1954 -76.2369
rradius 28.7435
rwrist 8.98976
rhand -16.5548 10.9854
rfingers 7.12502
rthumb 9.66495 -18.7728
lclavicle -3.97569e-015 -2.14687e-014
lhumerus -25.2549 11.5471 83.8445
lradius 27.9114
lwrist -9.27125
lhand -15.4682 25.1186
lfingers 7.12502
lthumb 10.7131 414.825
rfemur -28.7897 -3.11522 17.5638
rtibia 60.0019
rfoot -10.1857 -9.35812
rtoes 0.932331
lfemur -8.25416 1.08731 -28.4011
ltibia 27.9282
lfoot -17.5287 1.64265
ltoes 3.15719
451
root 0.54448 17.1758 39.179 0.955103 -1.56644 4.58664
lowerback 6.61712 -0.235416 -4.64138
upperback 0.390132 -0.613358 1.37279
thorax -3.24623 -0.228647 4.09326
lowerneck -17.0202 -2.17285 -9.42514
upperneck 19.4788 -1.44822 4.33266
head 9.03167 -0.910461 2.86253
rclavicle 7.60351e-015 5.56597e-015
rhumerus -31.7958 -19.2174 -75.8902
rradius 28.9188
rwrist 9.1906
rhand -16.2012 10.7875
rfingers 7.12502
rthumb 10.0061 -18.9547
lclavicle 7.60351e-015 5.56597e-015
lhumerus -25.3819 11.2178 83.8144
lradius 28.1302
lwrist -9.12461
lhand -15.4009 25.3729
lfingers 7.12502
lthumb 10.778 415.076
rfemur -29.5777 -2.99684 17.0603
rtibia 58.4786
rfoot -10.6218 -9.63596
rtoes -1.37203
lfemur -7.64808 0.86639 -28.9781
ltibia 27.4977
lfoot -17.6422 1.9368
ltoes 3.18721
452
root 0.543019 17.1656 39.3165 1.12326 -1.51277 4.71597
lowerback 7.10818 -0.30722 -4.76829
upperback -0.136017 -0.750733 1.36414
thorax -4.05441 -0.261287 4.18296
lowerneck -16.8766 -2.18992 -9.48747
upperneck 19.8737 -1.51239 4.49205
head 9.14801 -0.937146 2.92615
rclavicle 1.44119e-015 -9.54166e-015
rhumerus -32.7945 -18.8125 -75.6351
rradius 29.0103
rwrist 9.17741
rhand -16.2287 10.9733
rfingers 7.12502
rthumb 9.97949 -18.7701
lclavicle 1.44119e-015 -9.54166e-015
lhumerus -25.92 10.7889 83.7028
lradius 28.4911
lwrist -8.91226
lhand -15.373 26.2472
lfingers 7.12502
lthumb 10.805 415.949
rfemur -30.2644 -2.92347 16.9058
rtibia 56.7351
rfoot -10.5206 -10.0456
rtoes -1.63823
lfemur -7.00305 0.717018 -29.1498
ltibia 26.9081
lfoot -17.7259 2.10527
ltoes 2.73066
453
root 0.545044 17.1605 39.4547 1.20935 -1.39054 4.84238
lowerback 6.57054 -0.455411 -4.90141
upperback 0.35019 -0.92425 1.37345
thorax -3.22502 -0.379349 4.26887
lowerneck -17.7755 -2.29823 -9.36577
upperneck 19.6703 -1.59637 4.47587
head 9.24634 -0.956461 2.88652
rclavicle -4.65156e-014 3.18055e-015
rhumerus -31.9043 -19.0109 -75.9034
rradius 28.7388
rwrist 9.45418
rhand -16.3432 9.83404
rfingers 7.12502
rthumb 9.86906 -19.9147
lclavicle -4.65156e-014 3.18055e-015
lhumerus -24.6401 10.8056 83.8003
lradius 28.5228
lwrist -8.85246
lhand -15.3469 26.4214
lfingers 7.12502
lthumb 10.8301 416.122
rfemur -30.7119 -2.98498 16.6851
rtibia 54.7448
rfoot -10.3905 -10.4411
rtoes -1.05711
lfemur -6.32502 0.682967 -29.3173
ltibia 26.4474
lfoot -17.9075 2.1504
ltoes 2.27789
454
root 0.547933 17.1604 39.592 1.25106 -1.35172 4.87631
lowerback 6.64192 -0.534607 -4.91063
upperback 0.421838 -1.03186 1.39873
thorax -3.17813 -0.435517 4.31055
lowerneck -17.932 -2.17374 -9.16014
upperneck 19.6679 -1.42016 4.27946
head 9.25744 -0.879074 2.80711
rclavicle -1.61016e-014 7.15625e-015
rhumerus -31.9122 -19.3595 -75.7889
rradius 28.7691
rwrist 10.0542
rhand -16.1705 9.14957
rfingers 7.12502
rthumb 10.0356 -20.5912
lclavicle -1.61016e-014 7.15625e-015
lhumerus -24.1294 10.7216 83.7834
lradius 28.7121
lwrist -8.89737
lhand -15.2893 26.0871
lfingers 7.12502
lthumb 10.8857 415.785
rfemur -31.0193 -2.87181 16.5609
rtibia 52.5088
rfoot -10.4336 -10.7977
rtoes -1.58761
lfemur -5.67997 0.762448 -29.3736
ltibia 26.1198
lfoot -18.1605 2.16714
ltoes 1.80011
455
root 0.539771 17.1645 39.7213 1.37096 -1.49001 4.47329
lowerback 6.67902 -0.517569 -4.62627
upperback 0.439025 -0.982757 1.59222
thorax -3.18771 -0.41398 4.34785
lowerneck -17.8858 -2.14079 -9.21709
upperneck 19.609 -1.36307 4.28289
head 9.22492 -0.855605 2.8243
rclavicle -1.98785e-016 -1.90833e-014
rhumerus -32.0466 -19.5482 -75.5834
rradius 28.8743
rwrist 10.4445
rhand -15.9132 8.87361
rfingers 7.12502
rthumb 10.2839 -20.855
lclavicle -1.98785e-016 -1.90833e-014
lhumerus -23.6268 10.7525 83.855
lradius 28.8033
lwrist -9.21287
lhand -15.0935 25.8287
lfingers 7.12502
lthumb 11.0745 415.516
rfemur -31.3543 -2.2945 16.9788
rtibia 50.0822
rfoot -9.97101 -11.2886
rtoes -1.62467
lfemur -5.11779 0.634915 -28.929
ltibia 25.7404
lfoot -18.2869 2.4893
ltoes 1.13262
